<svg xmlns="http://www.w3.org/2000/svg" viewBox="0 0 169.186 173.292"><defs><style>.a,.b,.d{fill:none;}.a{stroke:#444;}.b{stroke:#d43737;stroke-linecap:round;stroke-linejoin:round;}.c{stroke:none;}</style></defs><g transform="translate(10.85 -759.412)"><path class="a" d="M42.664-94.336a10.993,10.993,0,0,1,3.009.409,11.54,11.54,0,0,1,2.7,1.148,11.355,11.355,0,0,1,2.3,1.774,11.355,11.355,0,0,1,1.774,2.3A11.54,11.54,0,0,1,53.6-86,10.993,10.993,0,0,1,54-83a11.241,11.241,0,0,1-.844,4.348,11.255,11.255,0,0,1-2.479,3.67L34-58.3l-16.68-16.68a11.255,11.255,0,0,1-2.479-3.67A11.241,11.241,0,0,1,14-83a11.086,11.086,0,0,1,.409-3.018,11.555,11.555,0,0,1,1.139-2.7,11.261,11.261,0,0,1,1.774-2.3,11.261,11.261,0,0,1,2.3-1.774,11.555,11.555,0,0,1,2.7-1.139,11.086,11.086,0,0,1,3.018-.409,11.327,11.327,0,0,1,2.522.27,10.6,10.6,0,0,1,2.235.774,11.469,11.469,0,0,1,2.018,1.244A17.9,17.9,0,0,1,34-90.37a17.9,17.9,0,0,1,1.887-1.678A11.877,11.877,0,0,1,37.907-93.3a9.989,9.989,0,0,1,2.235-.774A11.689,11.689,0,0,1,42.664-94.336Z" transform="translate(64.03 820.278) rotate(92)"/><path class="a" d="M48.492-94.336a13.228,13.228,0,0,1,3.621.492,13.887,13.887,0,0,1,3.255,1.381,13.664,13.664,0,0,1,2.763,2.135,13.664,13.664,0,0,1,2.135,2.763,13.886,13.886,0,0,1,1.381,3.255,13.228,13.228,0,0,1,.492,3.621,13.527,13.527,0,0,1-1.015,5.232,13.543,13.543,0,0,1-2.982,4.416L38.069-50.97,18-71.041a13.543,13.543,0,0,1-2.982-4.416A13.527,13.527,0,0,1,14-80.69a13.34,13.34,0,0,1,.492-3.631,13.9,13.9,0,0,1,1.371-3.255A13.551,13.551,0,0,1,18-90.338a13.55,13.55,0,0,1,2.763-2.135,13.9,13.9,0,0,1,3.255-1.371,13.34,13.34,0,0,1,3.631-.492,13.63,13.63,0,0,1,3.035.324,12.761,12.761,0,0,1,2.689.931,13.8,13.8,0,0,1,2.428,1.5,21.537,21.537,0,0,1,2.271,2.02,21.537,21.537,0,0,1,2.271-2.02,14.292,14.292,0,0,1,2.428-1.507,12.02,12.02,0,0,1,2.689-.931A14.066,14.066,0,0,1,48.492-94.336Z" transform="translate(25.961 919.259) rotate(20)"/><path class="a" d="M35.256-94.336a8.152,8.152,0,0,1,2.231.3,8.558,8.558,0,0,1,2.006.851,8.421,8.421,0,0,1,1.7,1.316,8.42,8.42,0,0,1,1.316,1.7,8.557,8.557,0,0,1,.851,2.006,8.152,8.152,0,0,1,.3,2.231A8.336,8.336,0,0,1,43.04-82.7,8.346,8.346,0,0,1,41.2-79.98L28.833-67.611,16.464-79.98A8.346,8.346,0,0,1,14.626-82.7,8.336,8.336,0,0,1,14-85.926a8.221,8.221,0,0,1,.3-2.238,8.568,8.568,0,0,1,.845-2.006,8.351,8.351,0,0,1,1.316-1.7,8.351,8.351,0,0,1,1.7-1.316,8.568,8.568,0,0,1,2.006-.845,8.221,8.221,0,0,1,2.238-.3,8.4,8.4,0,0,1,1.87.2,7.864,7.864,0,0,1,1.657.574,8.505,8.505,0,0,1,1.5.922,13.272,13.272,0,0,1,1.4,1.245,13.272,13.272,0,0,1,1.4-1.245,8.807,8.807,0,0,1,1.5-.929,7.407,7.407,0,0,1,1.657-.574A8.669,8.669,0,0,1,35.256-94.336Z" transform="translate(19.878 909.807) rotate(5)"/><path class="a" d="M32.727-94.336a7.182,7.182,0,0,1,1.966.267,7.539,7.539,0,0,1,1.767.75,7.419,7.419,0,0,1,1.5,1.159,7.418,7.418,0,0,1,1.159,1.5,7.539,7.539,0,0,1,.75,1.767,7.182,7.182,0,0,1,.267,1.966,7.344,7.344,0,0,1-.551,2.841,7.353,7.353,0,0,1-1.619,2.4l-10.9,10.9-10.9-10.9a7.353,7.353,0,0,1-1.619-2.4A7.344,7.344,0,0,1,14-86.927a7.243,7.243,0,0,1,.267-1.972,7.549,7.549,0,0,1,.744-1.767,7.357,7.357,0,0,1,1.159-1.5,7.357,7.357,0,0,1,1.5-1.159,7.549,7.549,0,0,1,1.767-.744,7.243,7.243,0,0,1,1.972-.267,7.4,7.4,0,0,1,1.648.176,6.929,6.929,0,0,1,1.46.506,7.493,7.493,0,0,1,1.318.813,11.693,11.693,0,0,1,1.233,1.1,11.692,11.692,0,0,1,1.233-1.1,7.759,7.759,0,0,1,1.318-.818,6.525,6.525,0,0,1,1.46-.506A7.637,7.637,0,0,1,32.727-94.336Z" transform="translate(102.473 975.025) rotate(-6)"/><path class="a" d="M30.421-94.336a6.3,6.3,0,0,1,1.724.234,6.611,6.611,0,0,1,1.549.658,6.505,6.505,0,0,1,1.315,1.016,6.505,6.505,0,0,1,1.016,1.315,6.611,6.611,0,0,1,.658,1.549,6.3,6.3,0,0,1,.234,1.724,6.44,6.44,0,0,1-.483,2.491,6.448,6.448,0,0,1-1.42,2.1L25.459-73.69,15.9-83.246a6.448,6.448,0,0,1-1.42-2.1A6.44,6.44,0,0,1,14-87.839a6.351,6.351,0,0,1,.234-1.729,6.62,6.62,0,0,1,.653-1.549A6.451,6.451,0,0,1,15.9-92.433a6.451,6.451,0,0,1,1.315-1.016,6.62,6.62,0,0,1,1.549-.653,6.351,6.351,0,0,1,1.729-.234,6.49,6.49,0,0,1,1.445.154,6.076,6.076,0,0,1,1.28.443,6.57,6.57,0,0,1,1.156.712,10.253,10.253,0,0,1,1.081.962,10.253,10.253,0,0,1,1.081-.962,6.8,6.8,0,0,1,1.156-.717,5.722,5.722,0,0,1,1.28-.443A6.7,6.7,0,0,1,30.421-94.336Z" transform="translate(46.744 987.983) rotate(9)"/><path class="a" d="M26.713-94.336a4.875,4.875,0,0,1,1.335.181,5.119,5.119,0,0,1,1.2.509,5.037,5.037,0,0,1,1.018.787,5.037,5.037,0,0,1,.787,1.018,5.118,5.118,0,0,1,.509,1.2,4.876,4.876,0,0,1,.181,1.335,4.986,4.986,0,0,1-.374,1.929,4.992,4.992,0,0,1-1.1,1.628l-7.4,7.4-7.4-7.4a4.992,4.992,0,0,1-1.1-1.628A4.986,4.986,0,0,1,14-89.306a4.917,4.917,0,0,1,.181-1.338,5.125,5.125,0,0,1,.505-1.2,4.994,4.994,0,0,1,.787-1.018,4.994,4.994,0,0,1,1.018-.787,5.126,5.126,0,0,1,1.2-.505,4.917,4.917,0,0,1,1.338-.181,5.024,5.024,0,0,1,1.119.12,4.7,4.7,0,0,1,.991.343,5.087,5.087,0,0,1,.895.552,7.937,7.937,0,0,1,.837.744,7.938,7.938,0,0,1,.837-.744,5.267,5.267,0,0,1,.895-.555,4.429,4.429,0,0,1,.991-.343A5.184,5.184,0,0,1,26.713-94.336Z" transform="translate(107.786 843.312) rotate(-167)"/><path class="a" d="M26.713-94.336a4.875,4.875,0,0,1,1.335.181,5.119,5.119,0,0,1,1.2.509,5.037,5.037,0,0,1,1.018.787,5.037,5.037,0,0,1,.787,1.018,5.118,5.118,0,0,1,.509,1.2,4.876,4.876,0,0,1,.181,1.335,4.986,4.986,0,0,1-.374,1.929,4.992,4.992,0,0,1-1.1,1.628l-7.4,7.4-7.4-7.4a4.992,4.992,0,0,1-1.1-1.628A4.986,4.986,0,0,1,14-89.306a4.917,4.917,0,0,1,.181-1.338,5.125,5.125,0,0,1,.505-1.2,4.994,4.994,0,0,1,.787-1.018,4.994,4.994,0,0,1,1.018-.787,5.126,5.126,0,0,1,1.2-.505,4.917,4.917,0,0,1,1.338-.181,5.024,5.024,0,0,1,1.119.12,4.7,4.7,0,0,1,.991.343,5.087,5.087,0,0,1,.895.552,7.937,7.937,0,0,1,.837.744,7.938,7.938,0,0,1,.837-.744,5.267,5.267,0,0,1,.895-.555,4.429,4.429,0,0,1,.991-.343A5.184,5.184,0,0,1,26.713-94.336Z" transform="translate(21.713 771.086) rotate(150)"/><path class="a" d="M26.713-94.336a4.875,4.875,0,0,1,1.335.181,5.119,5.119,0,0,1,1.2.509,5.037,5.037,0,0,1,1.018.787,5.037,5.037,0,0,1,.787,1.018,5.118,5.118,0,0,1,.509,1.2,4.876,4.876,0,0,1,.181,1.335,4.986,4.986,0,0,1-.374,1.929,4.992,4.992,0,0,1-1.1,1.628l-7.4,7.4-7.4-7.4a4.992,4.992,0,0,1-1.1-1.628A4.986,4.986,0,0,1,14-89.306a4.917,4.917,0,0,1,.181-1.338,5.125,5.125,0,0,1,.505-1.2,4.994,4.994,0,0,1,.787-1.018,4.994,4.994,0,0,1,1.018-.787,5.126,5.126,0,0,1,1.2-.505,4.917,4.917,0,0,1,1.338-.181,5.024,5.024,0,0,1,1.119.12,4.7,4.7,0,0,1,.991.343,5.087,5.087,0,0,1,.895.552,7.937,7.937,0,0,1,.837.744,7.938,7.938,0,0,1,.837-.744,5.267,5.267,0,0,1,.895-.555,4.429,4.429,0,0,1,.991-.343A5.184,5.184,0,0,1,26.713-94.336Z" transform="matrix(-0.602, 0.799, -0.799, -0.602, -31.115, 833.069)"/><path class="a" d="M26.713-94.336a4.875,4.875,0,0,1,1.335.181,5.119,5.119,0,0,1,1.2.509,5.037,5.037,0,0,1,1.018.787,5.037,5.037,0,0,1,.787,1.018,5.118,5.118,0,0,1,.509,1.2,4.876,4.876,0,0,1,.181,1.335,4.986,4.986,0,0,1-.374,1.929,4.992,4.992,0,0,1-1.1,1.628l-7.4,7.4-7.4-7.4a4.992,4.992,0,0,1-1.1-1.628A4.986,4.986,0,0,1,14-89.306a4.917,4.917,0,0,1,.181-1.338,5.125,5.125,0,0,1,.505-1.2,4.994,4.994,0,0,1,.787-1.018,4.994,4.994,0,0,1,1.018-.787,5.126,5.126,0,0,1,1.2-.505,4.917,4.917,0,0,1,1.338-.181,5.024,5.024,0,0,1,1.119.12,4.7,4.7,0,0,1,.991.343,5.087,5.087,0,0,1,.895.552,7.937,7.937,0,0,1,.837.744,7.938,7.938,0,0,1,.837-.744,5.267,5.267,0,0,1,.895-.555,4.429,4.429,0,0,1,.991-.343A5.184,5.184,0,0,1,26.713-94.336Z" transform="matrix(0.276, 0.961, -0.961, 0.276, -49.226, 923.112)"/><path class="a" d="M26.713-94.336a4.875,4.875,0,0,1,1.335.181,5.119,5.119,0,0,1,1.2.509,5.037,5.037,0,0,1,1.018.787,5.037,5.037,0,0,1,.787,1.018,5.118,5.118,0,0,1,.509,1.2,4.876,4.876,0,0,1,.181,1.335,4.986,4.986,0,0,1-.374,1.929,4.992,4.992,0,0,1-1.1,1.628l-7.4,7.4-7.4-7.4a4.992,4.992,0,0,1-1.1-1.628A4.986,4.986,0,0,1,14-89.306a4.917,4.917,0,0,1,.181-1.338,5.125,5.125,0,0,1,.505-1.2,4.994,4.994,0,0,1,.787-1.018,4.994,4.994,0,0,1,1.018-.787,5.126,5.126,0,0,1,1.2-.505,4.917,4.917,0,0,1,1.338-.181,5.024,5.024,0,0,1,1.119.12,4.7,4.7,0,0,1,.991.343,5.087,5.087,0,0,1,.895.552,7.937,7.937,0,0,1,.837.744,7.938,7.938,0,0,1,.837-.744,5.267,5.267,0,0,1,.895-.555,4.429,4.429,0,0,1,.991-.343A5.184,5.184,0,0,1,26.713-94.336Z" transform="matrix(0.438, 0.899, -0.899, 0.438, -86.554, 929.592)"/><path class="a" d="M37.077-94.336a8.85,8.85,0,0,1,2.423.329,9.291,9.291,0,0,1,2.177.924,9.142,9.142,0,0,1,1.848,1.428,9.141,9.141,0,0,1,1.428,1.848,9.29,9.29,0,0,1,.924,2.177,8.85,8.85,0,0,1,.329,2.422,9.05,9.05,0,0,1-.679,3.5,9.061,9.061,0,0,1-2,2.955L30.1-65.322,16.675-78.751a9.061,9.061,0,0,1-2-2.955,9.05,9.05,0,0,1-.679-3.5,8.925,8.925,0,0,1,.329-2.429,9.3,9.3,0,0,1,.917-2.177,9.066,9.066,0,0,1,1.428-1.848,9.066,9.066,0,0,1,1.848-1.428,9.3,9.3,0,0,1,2.177-.917,8.926,8.926,0,0,1,2.43-.329,9.12,9.12,0,0,1,2.03.217,8.539,8.539,0,0,1,1.8.623,9.233,9.233,0,0,1,1.624,1A14.406,14.406,0,0,1,30.1-91.143a14.406,14.406,0,0,1,1.519-1.351A9.56,9.56,0,0,1,33.247-93.5a8.04,8.04,0,0,1,1.8-.623A9.411,9.411,0,0,1,37.077-94.336Z" transform="translate(-14.089 945.62) rotate(29)"/><path class="a" d="M48.067-94.336a13.065,13.065,0,0,1,3.576.486,13.715,13.715,0,0,1,3.214,1.364,13.5,13.5,0,0,1,2.729,2.109,13.5,13.5,0,0,1,2.109,2.729,13.715,13.715,0,0,1,1.364,3.214,13.065,13.065,0,0,1,.486,3.576,13.36,13.36,0,0,1-1,5.168A13.376,13.376,0,0,1,57.6-71.328L37.772-51.5,17.948-71.328A13.376,13.376,0,0,1,15-75.69a13.36,13.36,0,0,1-1-5.168,13.176,13.176,0,0,1,.486-3.587,13.732,13.732,0,0,1,1.354-3.214,13.384,13.384,0,0,1,2.109-2.729A13.383,13.383,0,0,1,20.677-92.5a13.732,13.732,0,0,1,3.214-1.354,13.176,13.176,0,0,1,3.587-.486,13.462,13.462,0,0,1,3,.32,12.6,12.6,0,0,1,2.656.92,13.631,13.631,0,0,1,2.4,1.478,21.271,21.271,0,0,1,2.243,1.995,21.271,21.271,0,0,1,2.243-1.995,14.115,14.115,0,0,1,2.4-1.488,11.872,11.872,0,0,1,2.656-.92A13.893,13.893,0,0,1,48.067-94.336Z" transform="translate(46.347 870.584) rotate(-22)"/><g transform="translate(22 478.026)"><g class="b" transform="translate(61.424 318.305)"><rect class="c" width="55.361" height="35.668"/><rect class="d" x="0.5" y="0.5" width="54.361" height="34.668"/></g><g class="b" transform="translate(58 308.73)"><rect class="c" width="62.21" height="10.273"/><rect class="d" x="0.5" y="0.5" width="61.21" height="9.273"/></g><path class="b" d="M540.827,444.272s4.949-8.851,13.327-13.173,13.622-.432,10.811,4.973-32.421,4-40.306,1.879c-4.7-1.261,1.749-9.546,7.6-9.807,3.724-.167,8.993,5.132,11.439,12.383l2.377,3.745" transform="translate(-455.764 -130.405)"/></g></g></svg>