<svg xmlns="http://www.w3.org/2000/svg" viewBox="0 0 260.2 241.547"><defs><style>.a{fill:#d43737;}</style></defs><g transform="translate(-7 -8)"><path class="a" d="M71.59,42.16c10.64,2.86,29.89,5.07,49.78,5.96a108.871,108.871,0,0,0-6.14,9.45,4,4,0,0,0,6.98,3.91c.04-.07.93-1.64,2.61-4.2l.8,38.57a40.792,40.792,0,0,0-6.78-4.13,38.184,38.184,0,0,0-8.07-2.8,40.705,40.705,0,0,0-8.77-.97h-.35a39.464,39.464,0,0,0-10.7,1.47,41.357,41.357,0,0,0-9.68,4.08,40.212,40.212,0,0,0-8.22,6.35,40.676,40.676,0,0,0-6.36,8.23,41.428,41.428,0,0,0-4.07,9.66,40.111,40.111,0,0,0,10.42,39.52l53.84,53.84a4.008,4.008,0,0,0,5.66,0l53.81-53.82a39.738,39.738,0,0,0,11.91-28.71,39.479,39.479,0,0,0-1.47-10.81,41.593,41.593,0,0,0-4.1-9.67,40.8,40.8,0,0,0-14.57-14.57,41.412,41.412,0,0,0-9.67-4.1,38.271,38.271,0,0,0-10.79-1.47,42.206,42.206,0,0,0-9,.94,36.192,36.192,0,0,0-8.12,2.82,42.33,42.33,0,0,0-6.94,4.28l-.99-47.52c3.77.07,7.52.08,11.17.04,35.76-.43,56.46-5.6,61.54-15.36,4.64-8.93,4-17.69-1.72-23.43-6.42-6.44-20.53-9.59-40.87.91-14.01,7.23-25.25,17.86-33.28,27.18-9.6-22-26.7-38.41-40.42-37.79C74.33.67,62.65,14.34,61.35,26.19,60.51,34.12,64.42,40.24,71.59,42.16Zm94.83-24.42c15.46-7.98,26.98-6.94,31.54-2.37,3.18,3.19,3.29,8.33.29,14.09-2.63,5.06-18.34,10.62-54.54,11.05-1.95.02-3.91.03-5.9.02C145.13,32.45,154.81,23.73,166.42,17.74ZM144.07,98.9a28.433,28.433,0,0,1,6.31-2.19,33.638,33.638,0,0,1,7.28-.75h.04a31.336,31.336,0,0,1,8.62,1.17,33.262,33.262,0,0,1,7.79,3.31,32.8,32.8,0,0,1,11.7,11.7,33.625,33.625,0,0,1,3.31,7.79,31.415,31.415,0,0,1,1.17,8.66,31.74,31.74,0,0,1-9.55,23.03l-51,51.01L78.7,151.6a32.621,32.621,0,0,1-8.36-31.7,33.173,33.173,0,0,1,3.28-7.79,32.74,32.74,0,0,1,11.69-11.69,33.424,33.424,0,0,1,7.8-3.28,31.79,31.79,0,0,1,8.59-1.17h.1a32.042,32.042,0,0,1,7.24.77,30.679,30.679,0,0,1,6.36,2.2,33.369,33.369,0,0,1,5.81,3.58,54.291,54.291,0,0,1,5.67,5.04,3.994,3.994,0,0,0,2.86,1.21,3.954,3.954,0,0,0,2.86-1.21,53.171,53.171,0,0,1,5.67-5.04A33.5,33.5,0,0,1,144.07,98.9ZM69.33,27.06c.83-7.62,8.87-18.55,20.08-19.05.14-.01.28-.01.42-.01,9.1,0,23.26,12.7,31.94,32.14-19.31-.84-37.92-2.97-48.1-5.7C72.43,34.1,68.67,33.09,69.33,27.06Z" transform="translate(7 7.997)"/><path class="a" d="M256.21,59.77h-115a4,4,0,0,0,0,8h111V96.83H205.74a4,4,0,1,0,0,8h27.99V233.55H27V104.82H54.82a4,4,0,1,0,0-8H8V67.77h98.2a4,4,0,1,0,0-8H4a4,4,0,0,0-4,4v37.06a4,4,0,0,0,4,4H19V237.55a4,4,0,0,0,4,4H237.14a1.417,1.417,0,0,1,.58,0,4,4,0,0,0,4-4V104.82H256.2a4,4,0,0,0,4-4V63.77A3.99,3.99,0,0,0,256.21,59.77Z" transform="translate(7 7.997)"/></g></svg>